<?xml version="1.0" encoding="iso-8859-1"?>
<!-- Generator: Adobe Illustrator 19.0.0, SVG Export Plug-In . SVG Version: 6.00 Build 0)  -->
<svg xmlns="http://www.w3.org/2000/svg" xmlns:xlink="http://www.w3.org/1999/xlink" version="1.1" id="Layer_1" x="0px" y="0px" viewBox="0 0 336 336" style="enable-background:new 0 0 336 336;" xml:space="preserve" width="512px" height="512px">
<g>
	<g>
		<g>
			<path d="M312,123.2c0-0.4,0-0.8,0-1.2l-18.4-82.8c-4-18.4-20.4-31.6-39.2-31.6H77.6c-18.8,0-35.2,13.2-39.2,31.6L20,122.4     c-0.4,1.2-0.4,2,0,3.2c-12,6.8-20,20-20,34.8v80c0,12.4,6.8,22.8,16.4,30c0,0.4-0.4,1.2-0.4,2v28c0,15.6,12.4,28,28,28h8     c15.6,0,28-12.4,28-28v-20h176v20c0,15.6,12.4,28,28,28h8c15.6,0,28-12.4,28-28v-28c9.6-7.2,16-18.8,16-32V160     C336,143.6,326,129.6,312,123.2z M54.4,42.8C56.8,32,66.4,24,77.6,24h176.8c11.2,0,21.2,8,23.2,18.8l17.2,77.2H40     c-0.8,0-2,0-2.8,0L54.4,42.8z M64,300c0,6.8-5.2,12-12,12h-8c-6.8,0-12-5.2-12-12v-22c4,1.2,8,2,12,2h20V300z M304,300     c0,6.8-5.2,12-12,12h-8c-6.8,0-12-5.2-12-12v-20h24c2.8,0,5.6-0.4,8-0.8V300z M320,240c0,13.2-10.8,24-24,24H44     c-12.8,0-28-10.8-28-24v-80c0-13.2,10.8-24,24-24h256c13.2,0,24,10.8,24,24V240z" fill="#333333"/>
			<path d="M60,172c-13.2,0-24,10.8-24,24s10.8,24,24,24s24-10.8,24-24S73.2,172,60,172z M60,204c-4.4,0-8-3.6-8-8c0-4.4,3.6-8,8-8     c4.4,0,8,3.6,8,8C68,200.4,64.4,204,60,204z" fill="#333333"/>
			<path d="M276,172c-13.2,0-24,10.8-24,24s10.8,24,24,24s24-10.8,24-24S289.2,172,276,172z M276,204c-4.4,0-8-3.6-8-8     c0-4.4,3.6-8,8-8c4.4,0,8,3.6,8,8C284,200.4,280.4,204,276,204z" fill="#333333"/>
		</g>
	</g>
</g>
<g>
</g>
<g>
</g>
<g>
</g>
<g>
</g>
<g>
</g>
<g>
</g>
<g>
</g>
<g>
</g>
<g>
</g>
<g>
</g>
<g>
</g>
<g>
</g>
<g>
</g>
<g>
</g>
<g>
</g>
</svg>
